<?xml version="1.0" encoding="UTF-8" standalone="no"?>
<svg width="20px" height="20px" viewBox="0 0 20 20" version="1.1" xmlns="http://www.w3.org/2000/svg" xmlns:xlink="http://www.w3.org/1999/xlink" xmlns:sketch="http://www.bohemiancoding.com/sketch/ns">
    <!-- Generator: Sketch 3.4.4 (17249) - http://www.bohemiancoding.com/sketch -->
    <title>Paw</title>
    <desc>Created with Sketch.</desc>
    <defs></defs>
    <g id="Page-1" stroke="none" stroke-width="1" fill="none" fill-rule="evenodd" sketch:type="MSPage">
        <g id="icons" sketch:type="MSLayerGroup" transform="translate(-206.000000, 0.000000)" fill="#FFFFFF">
            <path d="M208.838,4.51 C209.197,2.835 209.793,2.599 210.87,1.88 C212.545,0.682 213.261,2.599 213.261,4.51 C213.261,6.42 212.188,8.096 210.87,8.096 C209.554,8.095 208.477,6.419 208.838,4.51 L208.838,4.51 Z M214.819,3.556 C215.177,1.88 216.611,0.681 217.809,0.204 C219.72,-0.516 220.678,1.276 220.079,3.192 C219.363,5.111 217.45,7.257 216.251,6.661 C214.936,6.068 214.34,5.464 214.819,3.556 L214.819,3.556 Z M219.124,7.023 C219.962,5.109 221.874,4.627 223.188,4.273 C225.342,3.789 226.06,5.945 224.862,7.74 C224.268,8.578 220.917,10.724 219.602,10.009 C218.647,9.537 218.404,8.698 219.124,7.023 L219.124,7.023 Z M218.525,13.723 C219.241,12.048 220.916,11.562 221.993,11.212 C223.788,10.725 224.505,12.762 223.43,14.316 C222.953,15.03 220.079,17.071 218.882,16.352 C218.168,15.986 217.926,15.273 218.525,13.723 L218.525,13.723 Z M206.684,10.725 C207.043,10.009 212.782,8.698 214.458,8.816 C214.818,8.816 216.611,8.933 217.206,11.805 C217.331,12.401 217.206,16.946 216.85,17.31 C216.611,17.784 215.296,18.985 213.739,19.102 C211.828,19.219 211.108,15.517 211.108,15.517 C211.108,15.517 208.838,15.03 207.163,14.192 C206.208,13.841 206.084,12.283 206.684,10.725 L206.684,10.725 Z" id="Paw" sketch:type="MSShapeGroup"></path>
        </g>
    </g>
</svg>