<?xml version="1.0" encoding="UTF-8" standalone="no"?>
<svg width="22px" height="17px" viewBox="0 0 22 17" version="1.1" xmlns="http://www.w3.org/2000/svg" xmlns:xlink="http://www.w3.org/1999/xlink" xmlns:sketch="http://www.bohemiancoding.com/sketch/ns">
    <!-- Generator: Sketch 3.4.4 (17249) - http://www.bohemiancoding.com/sketch -->
    <title>car-front</title>
    <desc>Created with Sketch.</desc>
    <defs></defs>
    <g id="Page-1" stroke="none" stroke-width="1" fill="none" fill-rule="evenodd" sketch:type="MSPage">
        <g id="icons" sketch:type="MSLayerGroup" transform="translate(-72.000000, -1.000000)" fill="#FFFFFF">
            <path d="M87.527,9.978 C86.2,10.335 85.84,12.391 87.165,13.119 C88.255,13.842 89.941,13.119 89.941,11.786 C90.064,10.705 88.734,9.614 87.527,9.978 L87.527,9.978 Z M77.388,9.978 C76.06,10.218 75.578,12.147 76.665,12.994 C77.629,13.959 79.441,13.355 79.684,12.031 C79.925,10.939 78.594,9.614 77.388,9.978 L77.388,9.978 Z M76.304,3.575 C75.7,5.028 74.974,6.358 74.735,7.921 C76.784,8.045 87.65,8.045 91.03,7.921 C90.665,6.478 90.062,5.271 89.579,3.946 C89.335,3.459 89.219,2.854 88.732,2.492 C88.128,2.013 87.406,2.134 86.803,2.134 L77.989,2.134 C77.149,2.133 76.546,2.854 76.304,3.575 L76.304,3.575 Z M75.7,2.615 C76.181,1.646 77.388,1.161 78.476,1.161 L87.288,1.161 C88.494,1.161 89.701,1.764 90.184,2.854 C90.906,4.179 91.392,5.632 91.996,6.961 C92.477,7.919 93.321,8.647 93.564,9.73 C93.807,10.822 93.807,12.03 93.564,13.237 C93.32,14.2 92.237,14.679 91.752,15.532 C91.633,16.258 91.633,16.978 91.51,17.582 C91.148,18.067 88.857,18.067 88.372,17.819 C88.012,17.214 88.129,15.887 87.047,15.887 C84.993,15.77 79.196,15.77 78.232,16.008 C77.628,16.49 77.752,17.341 77.148,17.82 C76.181,18.068 74.975,18.068 74.132,17.583 C74.008,16.737 74.371,15.654 73.645,15.051 C73.041,14.325 72.199,13.843 72.077,12.751 C71.958,11.31 71.958,9.615 72.925,8.406 C74.248,6.714 74.612,4.549 75.7,2.615 L75.7,2.615 Z" id="car-front" sketch:type="MSShapeGroup"></path>
        </g>
    </g>
</svg>