<?xml version="1.0" encoding="UTF-8" standalone="no"?>
<svg width="15px" height="20px" viewBox="0 0 15 20" version="1.1" xmlns="http://www.w3.org/2000/svg" xmlns:xlink="http://www.w3.org/1999/xlink" xmlns:sketch="http://www.bohemiancoding.com/sketch/ns">
    <!-- Generator: Sketch 3.4.4 (17249) - http://www.bohemiancoding.com/sketch -->
    <title>person-heart</title>
    <desc>Created with Sketch.</desc>
    <defs></defs>
    <g id="Page-1" stroke="none" stroke-width="1" fill="none" fill-rule="evenodd" sketch:type="MSPage">
        <g id="icons" sketch:type="MSLayerGroup" transform="translate(-175.000000, 0.000000)" fill="#FFFFFF">
            <path d="M178.937,3.614 C178.937,5.523 180.604,7.193 182.63,7.193 C184.654,7.193 186.324,5.641 186.324,3.614 C186.324,1.705 184.655,0.044 182.63,0.044 C180.605,0.043 178.937,1.587 178.937,3.614 L178.937,3.614 Z M176.912,18.868 L176.912,14.458 C176.912,14.458 177.747,14.815 177.747,16.121 L177.747,19.101 L187.517,19.101 L187.517,16.121 C187.517,14.815 188.35,14.458 188.35,14.458 L188.35,18.868 L189.778,18.868 L189.778,12.313 C187.875,7.9 182.631,8.263 182.631,8.263 C182.631,8.263 177.508,8.021 175.483,12.313 L175.483,18.868 L176.912,18.868 L176.912,18.868 Z M179.177,13.978 C179.177,13.978 178.581,11.835 180.605,11.483 C181.679,11.361 182.276,11.718 182.512,12.193 C182.872,11.834 183.348,11.361 184.42,11.483 C186.447,11.718 185.851,13.978 185.851,13.978 C185.851,13.978 185.254,15.532 182.512,17.436 L182.512,17.436 L182.512,17.436 L182.512,17.436 L182.512,17.436 C179.891,15.533 179.177,13.978 179.177,13.978 L179.177,13.978 Z" id="person-heart" sketch:type="MSShapeGroup"></path>
        </g>
    </g>
</svg>