<?xml version="1.0" encoding="UTF-8" standalone="no"?>
<svg width="20px" height="20px" viewBox="0 0 20 20" version="1.1" xmlns="http://www.w3.org/2000/svg" xmlns:xlink="http://www.w3.org/1999/xlink" xmlns:sketch="http://www.bohemiancoding.com/sketch/ns">
    <!-- Generator: Sketch 3.4.4 (17249) - http://www.bohemiancoding.com/sketch -->
    <title>Plane</title>
    <desc>Created with Sketch.</desc>
    <defs></defs>
    <g id="Page-1" stroke="none" stroke-width="1" fill="none" fill-rule="evenodd" sketch:type="MSPage">
        <g id="icons" sketch:type="MSLayerGroup" transform="translate(-239.000000, 0.000000)" fill="#FFFFFF">
            <path d="M256.067,0.323 C256.541,-0.146 257.968,-0.03 258.323,0.686 C258.56,1.159 258.917,2.231 258.56,2.582 C257.135,4.13 255.235,6.147 253.808,7.696 C254.641,11.019 255.47,13.998 256.304,17.324 C255.829,17.914 255.235,18.513 254.641,19.102 C253.214,16.258 251.432,13.998 250.005,11.143 C249.055,12.209 248.105,12.693 247.152,13.758 C247.033,13.88 246.796,14.115 246.917,14.349 C247.034,15.187 246.559,16.016 246.678,16.726 C246.203,17.205 245.845,17.68 245.371,18.031 C244.894,16.962 244.894,15.896 244.3,14.947 C243.352,14.348 241.924,14.348 240.975,13.88 C241.449,13.398 241.803,13.044 242.163,12.569 C242.992,12.569 244.299,12.331 245.251,12.331 C246.323,11.143 246.917,9.596 247.985,8.408 C245.37,6.868 242.163,5.914 239.546,4.373 C240.14,3.772 240.616,2.702 241.211,2.116 C244.419,3.064 248.106,4.373 251.432,5.321 C252.62,3.888 254.641,1.874 256.067,0.323 L256.067,0.323 Z" id="Plane" sketch:type="MSShapeGroup"></path>
        </g>
    </g>
</svg>